<?xml version="1.0" standalone="no"?>
<!DOCTYPE svg PUBLIC "-//W3C//DTD SVG 20010904//EN"
 "http://www.w3.org/TR/2001/REC-SVG-20010904/DTD/svg10.dtd">
<svg version="1.0" xmlns="http://www.w3.org/2000/svg"
 width="500.000000pt" height="500.000000pt" viewBox="0 0 500.000000 500.000000"
 preserveAspectRatio="xMidYMid meet">
<metadata>
Created by potrace 1.14, written by Peter Selinger 2001-2017
</metadata>
<g transform="translate(0.000000,500.000000) scale(0.100000,-0.100000)"
fill="#000000" stroke="none">
<path d="M2438 4924 c-2 -1 -23 -5 -47 -8 -98 -12 -221 -61 -321 -129 -73 -49
-1820 -1802 -1869 -1875 -138 -205 -166 -470 -75 -699 29 -71 81 -163 93 -163
4 0 8 14 9 32 5 58 33 179 59 252 82 229 207 421 398 612 241 241 487 379 805
450 14 3 79 7 145 9 124 4 216 -9 292 -40 l38 -16 59 63 c98 104 363 389 446
478 60 65 245 263 275 295 17 17 82 87 145 155 63 69 145 156 182 195 l68 70
-78 75 c-93 89 -102 96 -167 136 -52 32 -162 79 -205 88 -14 3 -36 8 -50 11
-26 6 -198 14 -202 9z"/>
<path d="M3470 4169 c-120 -112 -181 -169 -310 -289 -73 -69 -145 -136 -160
-150 -15 -14 -74 -68 -131 -121 -136 -126 -161 -150 -309 -289 -69 -64 -138
-129 -155 -144 -110 -101 -136 -129 -129 -145 4 -9 16 -47 27 -86 24 -85 28
-297 8 -390 -34 -156 -114 -350 -198 -482 -232 -365 -615 -655 -978 -739 -95
-22 -104 -23 -143 -26 -18 -1 -35 -5 -37 -8 -1 -3 93 -100 209 -216 l212 -212
71 67 c64 60 267 250 349 326 17 17 76 72 131 122 55 51 120 112 145 135 25
24 74 70 109 102 35 33 120 112 189 177 69 65 142 132 162 149 35 30 36 32 23
63 -34 83 -48 188 -42 316 9 201 62 373 175 571 110 192 143 230 612 701 206
207 385 388 397 401 l23 24 -98 97 -97 97 -55 -51z"/>
<path d="M3453 3398 c-295 -296 -444 -452 -448 -471 -16 -65 32 -146 96 -160
69 -17 79 -8 543 455 l439 439 -89 90 c-49 49 -91 89 -94 89 -3 0 -204 -199
-447 -442z"/>
<path d="M3801 3078 c-238 -238 -439 -442 -447 -454 -50 -75 14 -194 104 -194
17 0 41 4 54 9 23 9 898 876 898 890 0 3 -40 46 -88 94 l-89 88 -432 -433z"/>
<path d="M4113 2738 c-464 -466 -464 -466 -448 -537 12 -57 85 -107 141 -96
10 2 25 4 32 4 8 1 214 202 460 447 l445 445 -89 90 c-49 49 -91 89 -94 89 -3
0 -204 -199 -447 -442z"/>
<path d="M4494 2426 c-209 -208 -413 -408 -454 -443 -215 -185 -513 -326 -742
-350 -157 -17 -263 -6 -418 43 -10 3 -46 -29 -100 -87 -130 -141 -135 -146
-254 -273 -126 -135 -135 -145 -268 -288 -53 -57 -115 -124 -138 -148 -37 -39
-207 -222 -265 -285 -11 -12 -37 -40 -59 -63 l-39 -41 104 -104 c179 -180 264
-242 396 -289 222 -78 466 -47 668 85 39 26 364 343 937 916 482 482 895 899
917 926 54 66 115 192 139 286 35 138 24 316 -26 445 l-20 49 -378 -379z"/>
</g>
</svg>
